<svg xmlns="http://www.w3.org/2000/svg" viewBox="0 0 200 200">
  <!-- 背景 -->
  <rect width="200" height="200" fill="#ffffff" rx="40"/>
  
  <!-- 左の葉 -->
  <path d="M 60 140 Q 50 120 50 100 Q 50 70 70 60 Q 80 55 85 70 Q 75 80 75 100 Q 75 120 70 135 Z" fill="#16a34a"/>
  
  <!-- 中央の茎 -->
  <rect x="92" y="80" width="16" height="70" fill="#22c55e" rx="8"/>
  
  <!-- 右の葉 -->
  <path d="M 140 140 Q 150 120 150 100 Q 150 70 130 60 Q 120 55 115 70 Q 125 80 125 100 Q 125 120 130 135 Z" fill="#16a34a"/>
  
  <!-- 上の葉 -->
  <path d="M 100 55 Q 85 50 75 60 Q 70 70 85 85 Q 95 77 100 70 Z" fill="#22c55e"/>
  <path d="M 100 55 Q 115 50 125 60 Q 130 70 115 85 Q 105 77 100 70 Z" fill="#22c55e"/>
  
  <!-- 種（土の部分）-->
  <ellipse cx="100" cy="160" rx="30" ry="15" fill="#92400e"/>
  <ellipse cx="100" cy="158" rx="28" ry="13" fill="#b45309"/>
</svg>
